<mxfile modified="2023-09-21T02:31:30.692Z" host="Electron" agent="Mozilla/5.0 (X11; Linux x86_64) AppleWebKit/537.36 (KHTML, like Gecko) draw.io/21.3.7 Chrome/112.0.5615.204 Electron/24.5.0 Safari/537.36" etag="b5oi470nAmspKALkekiv" version="21.3.7" type="device">
  <diagram id="Ht1M8jgEwFfnCIfOTk4-" name="Page-1">
    <mxGraphModel dx="3354" dy="1343" grid="1" gridSize="10" guides="1" tooltips="1" connect="1" arrows="1" fold="1" page="1" pageScale="1" pageWidth="1169" pageHeight="827" math="0" shadow="0">
      <root>
        <mxCell id="0" />
        <mxCell id="1" parent="0" />
        <mxCell id="UEzPUAAOIrF-is8g5C7q-74" value="AWS Cloud" style="points=[[0,0],[0.25,0],[0.5,0],[0.75,0],[1,0],[1,0.25],[1,0.5],[1,0.75],[1,1],[0.75,1],[0.5,1],[0.25,1],[0,1],[0,0.75],[0,0.5],[0,0.25]];outlineConnect=0;gradientColor=none;html=1;whiteSpace=wrap;fontSize=12;fontStyle=0;shape=mxgraph.aws4.group;grIcon=mxgraph.aws4.group_aws_cloud_alt;strokeColor=#232F3E;fillColor=none;verticalAlign=top;align=left;spacingLeft=30;fontColor=#232F3E;dashed=0;labelBackgroundColor=#ffffff;container=1;pointerEvents=0;collapsible=0;recursiveResize=0;" parent="1" vertex="1">
          <mxGeometry x="160" y="210" width="1610" height="1030" as="geometry" />
        </mxCell>
        <mxCell id="WNuyyVBRVqpik64d4mMc-3" value="Region 01" style="points=[[0,0],[0.25,0],[0.5,0],[0.75,0],[1,0],[1,0.25],[1,0.5],[1,0.75],[1,1],[0.75,1],[0.5,1],[0.25,1],[0,1],[0,0.75],[0,0.5],[0,0.25]];outlineConnect=0;gradientColor=none;html=1;whiteSpace=wrap;fontSize=12;fontStyle=0;container=1;pointerEvents=0;collapsible=0;recursiveResize=0;shape=mxgraph.aws4.group;grIcon=mxgraph.aws4.group_region;strokeColor=#147EBA;fillColor=none;verticalAlign=top;align=left;spacingLeft=30;fontColor=#147EBA;dashed=1;" parent="UEzPUAAOIrF-is8g5C7q-74" vertex="1">
          <mxGeometry x="210" y="30" width="1260" height="960" as="geometry" />
        </mxCell>
        <mxCell id="WNuyyVBRVqpik64d4mMc-10" value="VPC" style="points=[[0,0],[0.25,0],[0.5,0],[0.75,0],[1,0],[1,0.25],[1,0.5],[1,0.75],[1,1],[0.75,1],[0.5,1],[0.25,1],[0,1],[0,0.75],[0,0.5],[0,0.25]];outlineConnect=0;gradientColor=none;html=1;whiteSpace=wrap;fontSize=12;fontStyle=0;container=1;pointerEvents=0;collapsible=0;recursiveResize=0;shape=mxgraph.aws4.group;grIcon=mxgraph.aws4.group_vpc;strokeColor=#248814;fillColor=none;verticalAlign=top;align=left;spacingLeft=30;fontColor=#AAB7B8;dashed=0;" parent="WNuyyVBRVqpik64d4mMc-3" vertex="1">
          <mxGeometry x="30" y="50" width="1080" height="860" as="geometry" />
        </mxCell>
        <mxCell id="WNuyyVBRVqpik64d4mMc-66" value="" style="fillColor=none;strokeColor=#5A6C86;dashed=1;verticalAlign=top;fontStyle=0;fontColor=#5A6C86;whiteSpace=wrap;html=1;" parent="WNuyyVBRVqpik64d4mMc-10" vertex="1">
          <mxGeometry x="190" y="640" width="770" height="113" as="geometry" />
        </mxCell>
        <mxCell id="WNuyyVBRVqpik64d4mMc-11" value="&lt;font color=&quot;#cc6600&quot;&gt;Databse subnet&lt;/font&gt;" style="points=[[0,0],[0.25,0],[0.5,0],[0.75,0],[1,0],[1,0.25],[1,0.5],[1,0.75],[1,1],[0.75,1],[0.5,1],[0.25,1],[0,1],[0,0.75],[0,0.5],[0,0.25]];outlineConnect=0;gradientColor=none;html=1;whiteSpace=wrap;fontSize=12;fontStyle=0;container=1;pointerEvents=0;collapsible=0;recursiveResize=0;shape=mxgraph.aws4.group;grIcon=mxgraph.aws4.group_security_group;grStroke=0;strokeColor=#CC6600;fillColor=#FFE6CC;verticalAlign=top;align=left;spacingLeft=30;fontColor=#147EBA;dashed=0;" parent="WNuyyVBRVqpik64d4mMc-10" vertex="1">
          <mxGeometry x="20" y="630" width="1020" height="180" as="geometry" />
        </mxCell>
        <mxCell id="WNuyyVBRVqpik64d4mMc-9" value="Private subnet" style="points=[[0,0],[0.25,0],[0.5,0],[0.75,0],[1,0],[1,0.25],[1,0.5],[1,0.75],[1,1],[0.75,1],[0.5,1],[0.25,1],[0,1],[0,0.75],[0,0.5],[0,0.25]];outlineConnect=0;gradientColor=none;html=1;whiteSpace=wrap;fontSize=12;fontStyle=0;container=1;pointerEvents=0;collapsible=0;recursiveResize=0;shape=mxgraph.aws4.group;grIcon=mxgraph.aws4.group_security_group;grStroke=0;strokeColor=#147EBA;fillColor=#E6F2F8;verticalAlign=top;align=left;spacingLeft=30;fontColor=#147EBA;dashed=0;" parent="WNuyyVBRVqpik64d4mMc-10" vertex="1">
          <mxGeometry x="20" y="350" width="1020" height="260" as="geometry" />
        </mxCell>
        <mxCell id="WNuyyVBRVqpik64d4mMc-8" value="Public subnet" style="points=[[0,0],[0.25,0],[0.5,0],[0.75,0],[1,0],[1,0.25],[1,0.5],[1,0.75],[1,1],[0.75,1],[0.5,1],[0.25,1],[0,1],[0,0.75],[0,0.5],[0,0.25]];outlineConnect=0;gradientColor=none;html=1;whiteSpace=wrap;fontSize=12;fontStyle=0;container=1;pointerEvents=0;collapsible=0;recursiveResize=0;shape=mxgraph.aws4.group;grIcon=mxgraph.aws4.group_security_group;grStroke=0;strokeColor=#248814;fillColor=#E9F3E6;verticalAlign=top;align=left;spacingLeft=30;fontColor=#248814;dashed=0;" parent="WNuyyVBRVqpik64d4mMc-10" vertex="1">
          <mxGeometry x="20" y="110" width="1020" height="220" as="geometry" />
        </mxCell>
        <mxCell id="WNuyyVBRVqpik64d4mMc-6" value="Availability Zone 1A" style="fillColor=none;strokeColor=#147EBA;dashed=1;verticalAlign=top;fontStyle=0;fontColor=#147EBA;whiteSpace=wrap;html=1;" parent="WNuyyVBRVqpik64d4mMc-10" vertex="1">
          <mxGeometry x="140" y="80" width="260" height="740" as="geometry" />
        </mxCell>
        <mxCell id="WNuyyVBRVqpik64d4mMc-7" value="Availability Zone 1B" style="fillColor=none;strokeColor=#147EBA;dashed=1;verticalAlign=top;fontStyle=0;fontColor=#147EBA;whiteSpace=wrap;html=1;" parent="WNuyyVBRVqpik64d4mMc-10" vertex="1">
          <mxGeometry x="440" y="80" width="260" height="740" as="geometry" />
        </mxCell>
        <mxCell id="WNuyyVBRVqpik64d4mMc-24" value="Availability Zone 1C" style="fillColor=none;strokeColor=#147EBA;dashed=1;verticalAlign=top;fontStyle=0;fontColor=#147EBA;whiteSpace=wrap;html=1;" parent="WNuyyVBRVqpik64d4mMc-10" vertex="1">
          <mxGeometry x="740" y="80" width="280" height="740" as="geometry" />
        </mxCell>
        <mxCell id="WNuyyVBRVqpik64d4mMc-44" value="Internet Gateway&lt;br&gt;Outbound Traffic" style="sketch=0;outlineConnect=0;fontColor=#232F3E;gradientColor=none;fillColor=#4D27AA;strokeColor=none;dashed=0;verticalLabelPosition=bottom;verticalAlign=top;align=center;html=1;fontSize=12;fontStyle=0;aspect=fixed;pointerEvents=1;shape=mxgraph.aws4.internet_gateway;" parent="WNuyyVBRVqpik64d4mMc-10" vertex="1">
          <mxGeometry x="290" y="-40" width="78" height="78" as="geometry" />
        </mxCell>
        <mxCell id="Ge2JfbFR6JGLqfeQ7Z1c-3" value="" style="sketch=0;points=[[0,0,0],[0.25,0,0],[0.5,0,0],[0.75,0,0],[1,0,0],[0,1,0],[0.25,1,0],[0.5,1,0],[0.75,1,0],[1,1,0],[0,0.25,0],[0,0.5,0],[0,0.75,0],[1,0.25,0],[1,0.5,0],[1,0.75,0]];outlineConnect=0;fontColor=#232F3E;gradientColor=#F78E04;gradientDirection=north;fillColor=#D05C17;strokeColor=#ffffff;dashed=0;verticalLabelPosition=bottom;verticalAlign=top;align=center;html=1;fontSize=12;fontStyle=0;aspect=fixed;shape=mxgraph.aws4.resourceIcon;resIcon=mxgraph.aws4.eks;" parent="WNuyyVBRVqpik64d4mMc-10" vertex="1">
          <mxGeometry x="231" y="240" width="78" height="78" as="geometry" />
        </mxCell>
        <mxCell id="Ge2JfbFR6JGLqfeQ7Z1c-5" value="" style="sketch=0;points=[[0,0,0],[0.25,0,0],[0.5,0,0],[0.75,0,0],[1,0,0],[0,1,0],[0.25,1,0],[0.5,1,0],[0.75,1,0],[1,1,0],[0,0.25,0],[0,0.5,0],[0,0.75,0],[1,0.25,0],[1,0.5,0],[1,0.75,0]];outlineConnect=0;fontColor=#232F3E;gradientColor=#F78E04;gradientDirection=north;fillColor=#D05C17;strokeColor=#ffffff;dashed=0;verticalLabelPosition=bottom;verticalAlign=top;align=center;html=1;fontSize=12;fontStyle=0;aspect=fixed;shape=mxgraph.aws4.resourceIcon;resIcon=mxgraph.aws4.eks;" parent="WNuyyVBRVqpik64d4mMc-10" vertex="1">
          <mxGeometry x="531" y="240" width="78" height="78" as="geometry" />
        </mxCell>
        <mxCell id="Ge2JfbFR6JGLqfeQ7Z1c-6" value="" style="sketch=0;points=[[0,0,0],[0.25,0,0],[0.5,0,0],[0.75,0,0],[1,0,0],[0,1,0],[0.25,1,0],[0.5,1,0],[0.75,1,0],[1,1,0],[0,0.25,0],[0,0.5,0],[0,0.75,0],[1,0.25,0],[1,0.5,0],[1,0.75,0]];outlineConnect=0;fontColor=#232F3E;gradientColor=#F78E04;gradientDirection=north;fillColor=#D05C17;strokeColor=#ffffff;dashed=0;verticalLabelPosition=bottom;verticalAlign=top;align=center;html=1;fontSize=12;fontStyle=0;aspect=fixed;shape=mxgraph.aws4.resourceIcon;resIcon=mxgraph.aws4.eks;" parent="WNuyyVBRVqpik64d4mMc-10" vertex="1">
          <mxGeometry x="841" y="240" width="78" height="78" as="geometry" />
        </mxCell>
        <mxCell id="Ge2JfbFR6JGLqfeQ7Z1c-7" value="" style="sketch=0;points=[[0,0,0],[0.25,0,0],[0.5,0,0],[0.75,0,0],[1,0,0],[0,1,0],[0.25,1,0],[0.5,1,0],[0.75,1,0],[1,1,0],[0,0.25,0],[0,0.5,0],[0,0.75,0],[1,0.25,0],[1,0.5,0],[1,0.75,0]];outlineConnect=0;fontColor=#232F3E;gradientColor=#F78E04;gradientDirection=north;fillColor=#D05C17;strokeColor=#ffffff;dashed=0;verticalLabelPosition=bottom;verticalAlign=top;align=center;html=1;fontSize=12;fontStyle=0;aspect=fixed;shape=mxgraph.aws4.resourceIcon;resIcon=mxgraph.aws4.eks;" parent="WNuyyVBRVqpik64d4mMc-10" vertex="1">
          <mxGeometry x="231" y="441" width="78" height="78" as="geometry" />
        </mxCell>
        <mxCell id="Ge2JfbFR6JGLqfeQ7Z1c-8" value="" style="sketch=0;points=[[0,0,0],[0.25,0,0],[0.5,0,0],[0.75,0,0],[1,0,0],[0,1,0],[0.25,1,0],[0.5,1,0],[0.75,1,0],[1,1,0],[0,0.25,0],[0,0.5,0],[0,0.75,0],[1,0.25,0],[1,0.5,0],[1,0.75,0]];outlineConnect=0;fontColor=#232F3E;gradientColor=#F78E04;gradientDirection=north;fillColor=#D05C17;strokeColor=#ffffff;dashed=0;verticalLabelPosition=bottom;verticalAlign=top;align=center;html=1;fontSize=12;fontStyle=0;aspect=fixed;shape=mxgraph.aws4.resourceIcon;resIcon=mxgraph.aws4.eks;" parent="WNuyyVBRVqpik64d4mMc-10" vertex="1">
          <mxGeometry x="531" y="441" width="78" height="78" as="geometry" />
        </mxCell>
        <mxCell id="Ge2JfbFR6JGLqfeQ7Z1c-9" value="" style="sketch=0;points=[[0,0,0],[0.25,0,0],[0.5,0,0],[0.75,0,0],[1,0,0],[0,1,0],[0.25,1,0],[0.5,1,0],[0.75,1,0],[1,1,0],[0,0.25,0],[0,0.5,0],[0,0.75,0],[1,0.25,0],[1,0.5,0],[1,0.75,0]];outlineConnect=0;fontColor=#232F3E;gradientColor=#F78E04;gradientDirection=north;fillColor=#D05C17;strokeColor=#ffffff;dashed=0;verticalLabelPosition=bottom;verticalAlign=top;align=center;html=1;fontSize=12;fontStyle=0;aspect=fixed;shape=mxgraph.aws4.resourceIcon;resIcon=mxgraph.aws4.eks;" parent="WNuyyVBRVqpik64d4mMc-10" vertex="1">
          <mxGeometry x="841" y="441" width="78" height="78" as="geometry" />
        </mxCell>
        <mxCell id="Ge2JfbFR6JGLqfeQ7Z1c-18" style="edgeStyle=orthogonalEdgeStyle;rounded=0;orthogonalLoop=1;jettySize=auto;html=1;exitX=0.5;exitY=1;exitDx=0;exitDy=0;entryX=0.5;entryY=0;entryDx=0;entryDy=0;entryPerimeter=0;" parent="WNuyyVBRVqpik64d4mMc-10" source="Ge2JfbFR6JGLqfeQ7Z1c-11" target="Ge2JfbFR6JGLqfeQ7Z1c-15" edge="1">
          <mxGeometry relative="1" as="geometry" />
        </mxCell>
        <mxCell id="Ge2JfbFR6JGLqfeQ7Z1c-11" value="EKS Cluster Control Plane" style="fillColor=none;strokeColor=#5A6C86;dashed=1;verticalAlign=top;fontStyle=0;fontColor=#5A6C86;whiteSpace=wrap;html=1;" parent="WNuyyVBRVqpik64d4mMc-10" vertex="1">
          <mxGeometry x="205" y="210" width="745" height="370" as="geometry" />
        </mxCell>
        <mxCell id="Ge2JfbFR6JGLqfeQ7Z1c-12" value="EKS Cluster Worker Nodes" style="fillColor=none;strokeColor=#5A6C86;dashed=1;verticalAlign=top;fontStyle=0;fontColor=#5A6C86;whiteSpace=wrap;html=1;" parent="WNuyyVBRVqpik64d4mMc-10" vertex="1">
          <mxGeometry x="222.5" y="415" width="710" height="130" as="geometry" />
        </mxCell>
        <mxCell id="Ge2JfbFR6JGLqfeQ7Z1c-15" value="Transact SQL" style="sketch=0;points=[[0,0,0],[0.25,0,0],[0.5,0,0],[0.75,0,0],[1,0,0],[0,1,0],[0.25,1,0],[0.5,1,0],[0.75,1,0],[1,1,0],[0,0.25,0],[0,0.5,0],[0,0.75,0],[1,0.25,0],[1,0.5,0],[1,0.75,0]];outlineConnect=0;fontColor=#232F3E;gradientColor=#4D72F3;gradientDirection=north;fillColor=#3334B9;strokeColor=#ffffff;dashed=0;verticalLabelPosition=bottom;verticalAlign=top;align=center;html=1;fontSize=12;fontStyle=0;aspect=fixed;shape=mxgraph.aws4.resourceIcon;resIcon=mxgraph.aws4.rds;" parent="WNuyyVBRVqpik64d4mMc-10" vertex="1">
          <mxGeometry x="531" y="681" width="78" height="78" as="geometry" />
        </mxCell>
        <mxCell id="Ge2JfbFR6JGLqfeQ7Z1c-21" style="edgeStyle=orthogonalEdgeStyle;rounded=0;orthogonalLoop=1;jettySize=auto;html=1;entryX=0.632;entryY=-0.007;entryDx=0;entryDy=0;entryPerimeter=0;" parent="WNuyyVBRVqpik64d4mMc-10" source="Ge2JfbFR6JGLqfeQ7Z1c-19" target="Ge2JfbFR6JGLqfeQ7Z1c-11" edge="1">
          <mxGeometry relative="1" as="geometry">
            <Array as="points">
              <mxPoint x="629" y="150" />
              <mxPoint x="629" y="190" />
              <mxPoint x="676" y="190" />
            </Array>
          </mxGeometry>
        </mxCell>
        <mxCell id="Ge2JfbFR6JGLqfeQ7Z1c-19" value="EKS Ingress" style="sketch=0;outlineConnect=0;fontColor=#232F3E;gradientColor=none;fillColor=#4D27AA;strokeColor=none;dashed=0;verticalLabelPosition=bottom;verticalAlign=top;align=center;html=1;fontSize=12;fontStyle=0;aspect=fixed;pointerEvents=1;shape=mxgraph.aws4.application_load_balancer;" parent="WNuyyVBRVqpik64d4mMc-10" vertex="1">
          <mxGeometry x="531" y="110" width="78" height="78" as="geometry" />
        </mxCell>
        <mxCell id="yC5KMYE5knI-6SYOr7_y-65" style="edgeStyle=orthogonalEdgeStyle;rounded=0;orthogonalLoop=1;jettySize=auto;html=1;entryX=0.5;entryY=0;entryDx=0;entryDy=0;entryPerimeter=0;" parent="UEzPUAAOIrF-is8g5C7q-74" source="WNuyyVBRVqpik64d4mMc-39" target="yC5KMYE5knI-6SYOr7_y-60" edge="1">
          <mxGeometry relative="1" as="geometry">
            <Array as="points">
              <mxPoint x="149" y="130" />
            </Array>
          </mxGeometry>
        </mxCell>
        <mxCell id="WNuyyVBRVqpik64d4mMc-39" value="Route 53 DNS&lt;br&gt;" style="sketch=0;points=[[0,0,0],[0.25,0,0],[0.5,0,0],[0.75,0,0],[1,0,0],[0,1,0],[0.25,1,0],[0.5,1,0],[0.75,1,0],[1,1,0],[0,0.25,0],[0,0.5,0],[0,0.75,0],[1,0.25,0],[1,0.5,0],[1,0.75,0]];outlineConnect=0;fontColor=#232F3E;gradientColor=#945DF2;gradientDirection=north;fillColor=#5A30B5;strokeColor=#ffffff;dashed=0;verticalLabelPosition=bottom;verticalAlign=top;align=center;html=1;fontSize=12;fontStyle=0;aspect=fixed;shape=mxgraph.aws4.resourceIcon;resIcon=mxgraph.aws4.route_53;" parent="UEzPUAAOIrF-is8g5C7q-74" vertex="1">
          <mxGeometry x="32" y="90" width="78" height="78" as="geometry" />
        </mxCell>
        <mxCell id="WNuyyVBRVqpik64d4mMc-45" style="edgeStyle=orthogonalEdgeStyle;rounded=0;orthogonalLoop=1;jettySize=auto;html=1;entryX=0.5;entryY=1;entryDx=0;entryDy=0;entryPerimeter=0;" parent="UEzPUAAOIrF-is8g5C7q-74" source="WNuyyVBRVqpik64d4mMc-41" target="WNuyyVBRVqpik64d4mMc-39" edge="1">
          <mxGeometry relative="1" as="geometry" />
        </mxCell>
        <mxCell id="WNuyyVBRVqpik64d4mMc-41" value="Certificate Manger" style="sketch=0;points=[[0,0,0],[0.25,0,0],[0.5,0,0],[0.75,0,0],[1,0,0],[0,1,0],[0.25,1,0],[0.5,1,0],[0.75,1,0],[1,1,0],[0,0.25,0],[0,0.5,0],[0,0.75,0],[1,0.25,0],[1,0.5,0],[1,0.75,0]];outlineConnect=0;fontColor=#232F3E;gradientColor=#F54749;gradientDirection=north;fillColor=#C7131F;strokeColor=#ffffff;dashed=0;verticalLabelPosition=bottom;verticalAlign=top;align=center;html=1;fontSize=12;fontStyle=0;aspect=fixed;shape=mxgraph.aws4.resourceIcon;resIcon=mxgraph.aws4.certificate_manager_3;" parent="UEzPUAAOIrF-is8g5C7q-74" vertex="1">
          <mxGeometry x="32" y="600" width="78" height="78" as="geometry" />
        </mxCell>
        <mxCell id="Ge2JfbFR6JGLqfeQ7Z1c-20" style="edgeStyle=orthogonalEdgeStyle;rounded=0;orthogonalLoop=1;jettySize=auto;html=1;" parent="UEzPUAAOIrF-is8g5C7q-74" source="yC5KMYE5knI-6SYOr7_y-60" target="Ge2JfbFR6JGLqfeQ7Z1c-19" edge="1">
          <mxGeometry relative="1" as="geometry">
            <Array as="points">
              <mxPoint x="320" y="329" />
              <mxPoint x="320" y="230" />
            </Array>
          </mxGeometry>
        </mxCell>
        <mxCell id="yC5KMYE5knI-6SYOr7_y-60" value="Cloud Front" style="sketch=0;points=[[0,0,0],[0.25,0,0],[0.5,0,0],[0.75,0,0],[1,0,0],[0,1,0],[0.25,1,0],[0.5,1,0],[0.75,1,0],[1,1,0],[0,0.25,0],[0,0.5,0],[0,0.75,0],[1,0.25,0],[1,0.5,0],[1,0.75,0]];outlineConnect=0;fontColor=#232F3E;gradientColor=#945DF2;gradientDirection=north;fillColor=#5A30B5;strokeColor=#ffffff;dashed=0;verticalLabelPosition=bottom;verticalAlign=top;align=center;html=1;fontSize=12;fontStyle=0;aspect=fixed;shape=mxgraph.aws4.resourceIcon;resIcon=mxgraph.aws4.networking_and_content_delivery;" parent="UEzPUAAOIrF-is8g5C7q-74" vertex="1">
          <mxGeometry x="110" y="290" width="78" height="78" as="geometry" />
        </mxCell>
        <mxCell id="WNuyyVBRVqpik64d4mMc-37" value="GitHub Repo" style="sketch=0;points=[[0,0,0],[0.25,0,0],[0.5,0,0],[0.75,0,0],[1,0,0],[0,1,0],[0.25,1,0],[0.5,1,0],[0.75,1,0],[1,1,0],[0,0.25,0],[0,0.5,0],[0,0.75,0],[1,0.25,0],[1,0.5,0],[1,0.75,0]];outlineConnect=0;fontColor=#232F3E;gradientColor=#4D72F3;gradientDirection=north;fillColor=#3334B9;strokeColor=#ffffff;dashed=0;verticalLabelPosition=bottom;verticalAlign=top;align=center;html=1;fontSize=12;fontStyle=0;aspect=fixed;shape=mxgraph.aws4.resourceIcon;resIcon=mxgraph.aws4.codecommit;" parent="UEzPUAAOIrF-is8g5C7q-74" vertex="1">
          <mxGeometry x="1500" y="-40" width="78" height="78" as="geometry" />
        </mxCell>
        <mxCell id="-cc4IS0tyaTeCPJwdnXH-3" style="edgeStyle=orthogonalEdgeStyle;rounded=0;orthogonalLoop=1;jettySize=auto;html=1;exitX=0;exitY=0.5;exitDx=0;exitDy=0;exitPerimeter=0;entryX=1;entryY=0.5;entryDx=0;entryDy=0;" edge="1" parent="UEzPUAAOIrF-is8g5C7q-74" source="-cc4IS0tyaTeCPJwdnXH-1" target="WNuyyVBRVqpik64d4mMc-10">
          <mxGeometry relative="1" as="geometry">
            <Array as="points">
              <mxPoint x="1440" y="407" />
              <mxPoint x="1440" y="510" />
            </Array>
          </mxGeometry>
        </mxCell>
        <mxCell id="-cc4IS0tyaTeCPJwdnXH-1" value="Elastic Container&lt;br&gt;Registry" style="sketch=0;points=[[0,0,0],[0.25,0,0],[0.5,0,0],[0.75,0,0],[1,0,0],[0,1,0],[0.25,1,0],[0.5,1,0],[0.75,1,0],[1,1,0],[0,0.25,0],[0,0.5,0],[0,0.75,0],[1,0.25,0],[1,0.5,0],[1,0.75,0]];outlineConnect=0;fontColor=#232F3E;gradientColor=#F78E04;gradientDirection=north;fillColor=#D05C17;strokeColor=#ffffff;dashed=0;verticalLabelPosition=bottom;verticalAlign=top;align=center;html=1;fontSize=12;fontStyle=0;aspect=fixed;shape=mxgraph.aws4.resourceIcon;resIcon=mxgraph.aws4.ecr;" vertex="1" parent="UEzPUAAOIrF-is8g5C7q-74">
          <mxGeometry x="1500" y="368" width="78" height="78" as="geometry" />
        </mxCell>
        <mxCell id="yC5KMYE5knI-6SYOr7_y-66" style="edgeStyle=orthogonalEdgeStyle;rounded=0;orthogonalLoop=1;jettySize=auto;html=1;entryX=0.5;entryY=0;entryDx=0;entryDy=0;entryPerimeter=0;exitX=0.16;exitY=0.55;exitDx=0;exitDy=0;exitPerimeter=0;" parent="1" source="WNuyyVBRVqpik64d4mMc-42" target="WNuyyVBRVqpik64d4mMc-39" edge="1">
          <mxGeometry relative="1" as="geometry" />
        </mxCell>
        <mxCell id="WNuyyVBRVqpik64d4mMc-42" value="Internet" style="ellipse;shape=cloud;whiteSpace=wrap;html=1;" parent="1" vertex="1">
          <mxGeometry x="670" y="50" width="120" height="80" as="geometry" />
        </mxCell>
        <mxCell id="-cc4IS0tyaTeCPJwdnXH-2" style="edgeStyle=orthogonalEdgeStyle;rounded=0;orthogonalLoop=1;jettySize=auto;html=1;entryX=1;entryY=0.5;entryDx=0;entryDy=0;entryPerimeter=0;" edge="1" parent="1" source="Ge2JfbFR6JGLqfeQ7Z1c-4" target="-cc4IS0tyaTeCPJwdnXH-1">
          <mxGeometry relative="1" as="geometry" />
        </mxCell>
        <mxCell id="Ge2JfbFR6JGLqfeQ7Z1c-4" value="Github Actions" style="sketch=0;points=[[0,0,0],[0.25,0,0],[0.5,0,0],[0.75,0,0],[1,0,0],[0,1,0],[0.25,1,0],[0.5,1,0],[0.75,1,0],[1,1,0],[0,0.25,0],[0,0.5,0],[0,0.75,0],[1,0.25,0],[1,0.5,0],[1,0.75,0]];outlineConnect=0;fontColor=#232F3E;gradientColor=#4D72F3;gradientDirection=north;fillColor=#3334B9;strokeColor=#ffffff;dashed=0;verticalLabelPosition=bottom;verticalAlign=top;align=center;html=1;fontSize=12;fontStyle=0;aspect=fixed;shape=mxgraph.aws4.resourceIcon;resIcon=mxgraph.aws4.codepipeline;" parent="1" vertex="1">
          <mxGeometry x="1720" y="390" width="78" height="78" as="geometry" />
        </mxCell>
        <mxCell id="WNuyyVBRVqpik64d4mMc-38" style="edgeStyle=orthogonalEdgeStyle;rounded=0;orthogonalLoop=1;jettySize=auto;html=1;entryX=0.25;entryY=0;entryDx=0;entryDy=0;entryPerimeter=0;exitX=0.5;exitY=1;exitDx=0;exitDy=0;exitPerimeter=0;" parent="1" source="WNuyyVBRVqpik64d4mMc-37" target="Ge2JfbFR6JGLqfeQ7Z1c-4" edge="1">
          <mxGeometry relative="1" as="geometry">
            <mxPoint x="1700" y="260" as="sourcePoint" />
            <mxPoint x="1709" y="480" as="targetPoint" />
          </mxGeometry>
        </mxCell>
        <mxCell id="WNuyyVBRVqpik64d4mMc-30" style="edgeStyle=orthogonalEdgeStyle;rounded=0;orthogonalLoop=1;jettySize=auto;html=1;exitX=0;exitY=0.5;exitDx=0;exitDy=0;exitPerimeter=0;" parent="1" source="Ge2JfbFR6JGLqfeQ7Z1c-4" target="WNuyyVBRVqpik64d4mMc-10" edge="1">
          <mxGeometry relative="1" as="geometry">
            <mxPoint x="1721" y="430" as="sourcePoint" />
            <mxPoint x="1600" y="681" as="targetPoint" />
          </mxGeometry>
        </mxCell>
      </root>
    </mxGraphModel>
  </diagram>
</mxfile>
